<?xml version="1.0" encoding="UTF-8" standalone="no"?>
<svg
   xmlns:dc="http://purl.org/dc/elements/1.1/"
   xmlns:cc="http://creativecommons.org/ns#"
   xmlns:rdf="http://www.w3.org/1999/02/22-rdf-syntax-ns#"
   xmlns:svg="http://www.w3.org/2000/svg"
   xmlns="http://www.w3.org/2000/svg"
   xmlns:sodipodi="http://sodipodi.sourceforge.net/DTD/sodipodi-0.dtd"
   xmlns:inkscape="http://www.inkscape.org/namespaces/inkscape"
   enable-background="new 0 0 32 32"
   height="128"
   id="Layer_1"
   version="1.1"
   viewBox="0 0 128 128"
   width="128"
   xml:space="preserve"
   inkscape:version="0.91 r13725"
   sodipodi:docname="arrows.svg"><metadata
     id="metadata4143"><rdf:RDF><cc:Work
         rdf:about=""><dc:format>image/svg+xml</dc:format><dc:type
           rdf:resource="http://purl.org/dc/dcmitype/StillImage" /><dc:title></dc:title></cc:Work></rdf:RDF></metadata><defs
     id="defs4141" /><sodipodi:namedview
     pagecolor="#eeeeee"
     bordercolor="#666666"
     borderopacity="1"
     objecttolerance="10"
     gridtolerance="10"
     guidetolerance="10"
     inkscape:pageopacity="0"
     inkscape:pageshadow="2"
     inkscape:window-width="1920"
     inkscape:window-height="1036"
     id="namedview4139"
     showgrid="false"
     inkscape:zoom="5.1190911"
     inkscape:cx="51.875794"
     inkscape:cy="58.230614"
     inkscape:window-x="1440"
     inkscape:window-y="0"
     inkscape:window-maximized="1"
     inkscape:current-layer="Layer_1" /><g
     id="arrow_right"
     inkscape:label="#g4749"
     transform="matrix(1,0,0,-1,3.3209021,34.038007)"
     inkscape:export-filename="/Users/chrismundy/Library/Application Support/Sublime Text 3/Packages/User/Mooseland/arrow_right.png"
     inkscape:export-xdpi="45"
     inkscape:export-ydpi="45"><path
       style="fill:#ffffff;fill-opacity:1"
       inkscape:connector-curvature="0"
       id="path4137"
       d="M 20.542156,14.847713 14.134602,8.4401601 c -0.58688,-0.58688 -1.548748,-0.58688 -2.135628,0 l -0.534743,0.5347426 c -0.58688,0.5862116 -0.58688,1.5480803 0,2.1349603 l 4.888885,4.89022 -4.889553,4.889553 c -0.58688,0.58688 -0.58688,1.548748 0,2.13496 l 0.534743,0.534742 c 0.58688,0.587549 1.548748,0.587549 2.135628,0 l 6.407554,-6.408221 c 0.315498,-0.31483 0.455868,-0.737276 0.432472,-1.151702 0.02406,-0.413757 -0.116306,-0.836204 -0.431804,-1.151702 z" /><rect
       inkscape:label="#rect4145"
       y="0"
       x="0"
       height="32"
       width="32"
       id="rect4145"
       style="fill:none;fill-opacity:0.562212;stroke:none;stroke-opacity:1" /></g><g
     id="arrow_right@2x"
     inkscape:label="#g4749"
     transform="translate(3.5347179,38.549461)"
     inkscape:export-filename="/Users/chrismundy/Library/Application Support/Sublime Text 3/Packages/User/Mooseland/arrow_right@2x.png"
     inkscape:export-xdpi="90"
     inkscape:export-ydpi="90"><path
       style="fill:#ffffff;fill-opacity:1"
       inkscape:connector-curvature="0"
       id="path4137-2"
       d="M 20.542156,14.847713 14.134602,8.4401601 c -0.58688,-0.58688 -1.548748,-0.58688 -2.135628,0 l -0.534743,0.5347426 c -0.58688,0.5862116 -0.58688,1.5480803 0,2.1349603 l 4.888885,4.89022 -4.889553,4.889553 c -0.58688,0.58688 -0.58688,1.548748 0,2.13496 l 0.534743,0.534742 c 0.58688,0.587549 1.548748,0.587549 2.135628,0 l 6.407554,-6.408221 c 0.315498,-0.31483 0.455868,-0.737276 0.432472,-1.151702 0.02406,-0.413757 -0.116306,-0.836204 -0.431804,-1.151702 z" /><rect
       inkscape:label="#rect4145"
       y="0"
       x="0"
       height="32"
       width="32"
       id="rect4145-3"
       style="fill:none;fill-opacity:0.562212;stroke:none;stroke-opacity:1" /></g><g
     id="arrow_down"
     inkscape:label="#g4749"
     transform="matrix(0,1,1,0,44.362278,2.4102324)"
     inkscape:export-filename="/Users/chrismundy/Library/Application Support/Sublime Text 3/Packages/User/Mooseland/arrow_down.png"
     inkscape:export-xdpi="45"
     inkscape:export-ydpi="45"><path
       style="fill:#ffffff;fill-opacity:1"
       inkscape:connector-curvature="0"
       id="path4137-7"
       d="M 20.542156,14.847713 14.134602,8.4401601 c -0.58688,-0.58688 -1.548748,-0.58688 -2.135628,0 l -0.534743,0.5347426 c -0.58688,0.5862116 -0.58688,1.5480803 0,2.1349603 l 4.888885,4.89022 -4.889553,4.889553 c -0.58688,0.58688 -0.58688,1.548748 0,2.13496 l 0.534743,0.534742 c 0.58688,0.587549 1.548748,0.587549 2.135628,0 l 6.407554,-6.408221 c 0.315498,-0.31483 0.455868,-0.737276 0.432472,-1.151702 0.02406,-0.413757 -0.116306,-0.836204 -0.431804,-1.151702 z" /><rect
       inkscape:label="#rect4145"
       y="0"
       x="0"
       height="32"
       width="32"
       id="rect4145-0"
       style="fill:none;fill-opacity:0.562212;stroke:none;stroke-opacity:1" /></g><g
     id="arrow_down@2x"
     inkscape:label="#g4749"
     inkscape:export-filename="/Users/chrismundy/Library/Application Support/Sublime Text 3/Packages/User/Mooseland/arrow_down@2x.png"
     inkscape:export-xdpi="90"
     inkscape:export-ydpi="90"
     transform="matrix(0,1,-1,0,76.166931,40.112237)"><path
       style="fill:#ffffff;fill-opacity:1"
       inkscape:connector-curvature="0"
       id="path4137-2-4"
       d="M 20.542156,14.847713 14.134602,8.4401601 c -0.58688,-0.58688 -1.548748,-0.58688 -2.135628,0 l -0.534743,0.5347426 c -0.58688,0.5862116 -0.58688,1.5480803 0,2.1349603 l 4.888885,4.89022 -4.889553,4.889553 c -0.58688,0.58688 -0.58688,1.548748 0,2.13496 l 0.534743,0.534742 c 0.58688,0.587549 1.548748,0.587549 2.135628,0 l 6.407554,-6.408221 c 0.315498,-0.31483 0.455868,-0.737276 0.432472,-1.151702 0.02406,-0.413757 -0.116306,-0.836204 -0.431804,-1.151702 z" /><rect
       inkscape:label="#rect4145"
       y="0"
       x="0"
       height="32"
       width="32"
       id="rect4145-3-2"
       style="fill:none;fill-opacity:0.562212;stroke:none;stroke-opacity:1" /></g><g
     id="arrow_left"
     inkscape:label="#g4749"
     transform="matrix(-1,0,0,1,114.84567,3.3869683)"
     inkscape:export-filename="/Users/chrismundy/Library/Application Support/Sublime Text 3/Packages/User/Mooseland/arrow_left.png"
     inkscape:export-xdpi="45"
     inkscape:export-ydpi="45"><path
       style="fill:#ffffff;fill-opacity:1"
       inkscape:connector-curvature="0"
       id="path4137-7-7"
       d="M 20.542156,14.847713 14.134602,8.4401601 c -0.58688,-0.58688 -1.548748,-0.58688 -2.135628,0 l -0.534743,0.5347426 c -0.58688,0.5862116 -0.58688,1.5480803 0,2.1349603 l 4.888885,4.89022 -4.889553,4.889553 c -0.58688,0.58688 -0.58688,1.548748 0,2.13496 l 0.534743,0.534742 c 0.58688,0.587549 1.548748,0.587549 2.135628,0 l 6.407554,-6.408221 c 0.315498,-0.31483 0.455868,-0.737276 0.432472,-1.151702 0.02406,-0.413757 -0.116306,-0.836204 -0.431804,-1.151702 z" /><rect
       inkscape:label="#rect4145"
       y="0"
       x="0"
       height="32"
       width="32"
       id="rect4145-0-6"
       style="fill:none;fill-opacity:0.562212;stroke:none;stroke-opacity:1" /></g><g
     id="arrow_left@2x"
     inkscape:label="#g4749"
     inkscape:export-filename="/Users/chrismundy/Library/Application Support/Sublime Text 3/Packages/User/Mooseland/arrow_left@2x.png"
     inkscape:export-xdpi="90"
     inkscape:export-ydpi="90"
     transform="matrix(-1,0,0,-1,115.43171,70.549461)"><path
       style="fill:#ffffff;fill-opacity:1"
       inkscape:connector-curvature="0"
       id="path4137-2-4-1"
       d="M 20.542156,14.847713 14.134602,8.4401601 c -0.58688,-0.58688 -1.548748,-0.58688 -2.135628,0 l -0.534743,0.5347426 c -0.58688,0.5862116 -0.58688,1.5480803 0,2.1349603 l 4.888885,4.89022 -4.889553,4.889553 c -0.58688,0.58688 -0.58688,1.548748 0,2.13496 l 0.534743,0.534742 c 0.58688,0.587549 1.548748,0.587549 2.135628,0 l 6.407554,-6.408221 c 0.315498,-0.31483 0.455868,-0.737276 0.432472,-1.151702 0.02406,-0.413757 -0.116306,-0.836204 -0.431804,-1.151702 z" /><rect
       inkscape:label="#rect4145"
       y="0"
       x="0"
       height="32"
       width="32"
       id="rect4145-3-2-1"
       style="fill:none;fill-opacity:0.562212;stroke:none;stroke-opacity:1" /></g></svg>