<?xml version="1.0" encoding="UTF-8" standalone="no"?>
<svg
   xmlns:dc="http://purl.org/dc/elements/1.1/"
   xmlns:cc="http://creativecommons.org/ns#"
   xmlns:rdf="http://www.w3.org/1999/02/22-rdf-syntax-ns#"
   xmlns:svg="http://www.w3.org/2000/svg"
   xmlns="http://www.w3.org/2000/svg"
   xmlns:sodipodi="http://sodipodi.sourceforge.net/DTD/sodipodi-0.dtd"
   xmlns:inkscape="http://www.inkscape.org/namespaces/inkscape"
   enable-background="new 0 0 32 32"
   height="256"
   id="Layer_1"
   version="1.1"
   viewBox="0 0 256 256"
   width="256"
   xml:space="preserve"
   inkscape:version="0.91 r13725"
   sodipodi:docname="arrows.svg"><metadata
     id="metadata4143"><rdf:RDF><cc:Work
         rdf:about=""><dc:format>image/svg+xml</dc:format><dc:type
           rdf:resource="http://purl.org/dc/dcmitype/StillImage" /><dc:title></dc:title></cc:Work></rdf:RDF></metadata><defs
     id="defs4141" /><sodipodi:namedview
     pagecolor="#ffffff"
     bordercolor="#666666"
     borderopacity="1"
     objecttolerance="10"
     gridtolerance="10"
     guidetolerance="10"
     inkscape:pageopacity="0"
     inkscape:pageshadow="2"
     inkscape:window-width="1920"
     inkscape:window-height="1036"
     id="namedview4139"
     showgrid="false"
     inkscape:zoom="10.238182"
     inkscape:cx="-0.77645615"
     inkscape:cy="20.499536"
     inkscape:window-x="1440"
     inkscape:window-y="0"
     inkscape:window-maximized="1"
     inkscape:current-layer="Layer_1" /><g
     id="arrow_right"
     inkscape:label="#g4749"
     transform="translate(3.7115964,1.4995602)"
     inkscape:export-filename="/Users/chrismundy/Library/Application Support/Sublime Text 3/Packages/User/Mooseland/arrow_right.png"
     inkscape:export-xdpi="45"
     inkscape:export-ydpi="45"><path
       style="fill:#515151"
       inkscape:connector-curvature="0"
       id="path4137"
       d="M 20.638542,14.823261 14.095017,8.2797365 c -0.599333,-0.5993339 -1.581613,-0.5993339 -2.180947,0 l -0.54609,0.5460901 c -0.599333,0.5986513 -0.599333,1.5809304 0,2.1802644 l 4.992629,4.993994 -4.993312,4.993311 c -0.599333,0.599334 -0.599333,1.581614 0,2.180265 l 0.546091,0.54609 c 0.599333,0.600017 1.581613,0.600017 2.180947,0 l 6.543524,-6.544207 c 0.322194,-0.321511 0.465542,-0.752922 0.441651,-1.176141 0.02457,-0.422538 -0.118775,-0.853949 -0.440968,-1.176142 z" /><rect
       inkscape:label="#rect4145"
       y="0"
       x="0"
       height="32"
       width="32"
       id="rect4145"
       style="fill:none;fill-opacity:0.562212;stroke:none;stroke-opacity:1" /></g><g
     id="arrow_down"
     inkscape:label="#g4749"
     transform="matrix(0,1,-1,0,75.776238,1.4810913)"
     inkscape:export-filename="/Users/chrismundy/Library/Application Support/Sublime Text 3/Packages/User/Mooseland/arrow_down.png"
     inkscape:export-xdpi="45"
     inkscape:export-ydpi="45"><path
       style="fill:#515151"
       inkscape:connector-curvature="0"
       id="path4137-4"
       d="M 24.291,14.276 14.705,4.69 c -0.878,-0.878 -2.317,-0.878 -3.195,0 l -0.8,0.8 c -0.878,0.877 -0.878,2.316 0,3.194 L 18.024,16 10.709,23.315 c -0.878,0.878 -0.878,2.317 0,3.194 l 0.8,0.8 c 0.878,0.879 2.317,0.879 3.195,0 l 9.586,-9.587 c 0.472,-0.471 0.682,-1.103 0.647,-1.723 0.036,-0.619 -0.174,-1.251 -0.646,-1.723 z" /><rect
       inkscape:label="#rect4145"
       y="0"
       x="0"
       height="32"
       width="32"
       id="rect4145-0"
       style="fill:none;fill-opacity:0.562212;stroke:none;stroke-opacity:1" /></g><g
     id="arrow_right@2x"
     inkscape:label="#g4749"
     transform="translate(3.7300653,35.666849)"
     inkscape:export-filename="/Users/chrismundy/Library/Application Support/Sublime Text 3/Packages/User/Mooseland/arrow_right@2x.png"
     inkscape:export-xdpi="90"
     inkscape:export-ydpi="90"><path
       style="fill:#515151"
       inkscape:connector-curvature="0"
       id="path4137-5"
       d="M 24.291,14.276 14.705,4.69 c -0.878,-0.878 -2.317,-0.878 -3.195,0 l -0.8,0.8 c -0.878,0.877 -0.878,2.316 0,3.194 L 18.024,16 10.709,23.315 c -0.878,0.878 -0.878,2.317 0,3.194 l 0.8,0.8 c 0.878,0.879 2.317,0.879 3.195,0 l 9.586,-9.587 c 0.472,-0.471 0.682,-1.103 0.647,-1.723 0.036,-0.619 -0.174,-1.251 -0.646,-1.723 z" /><rect
       inkscape:label="#rect4145"
       y="0"
       x="0"
       height="32"
       width="32"
       id="rect4145-2"
       style="fill:none;fill-opacity:0.562212;stroke:none;stroke-opacity:1" /></g><g
     id="arrow_down@2x"
     inkscape:label="#g4749"
     transform="matrix(0,1,-1,0,75.971585,35.471501)"
     inkscape:export-filename="/Users/chrismundy/Library/Application Support/Sublime Text 3/Packages/User/Mooseland/arrow_down@2x.png"
     inkscape:export-xdpi="90"
     inkscape:export-ydpi="90"><path
       style="fill:#515151"
       inkscape:connector-curvature="0"
       id="path4137-4-6"
       d="M 24.291,14.276 14.705,4.69 c -0.878,-0.878 -2.317,-0.878 -3.195,0 l -0.8,0.8 c -0.878,0.877 -0.878,2.316 0,3.194 L 18.024,16 10.709,23.315 c -0.878,0.878 -0.878,2.317 0,3.194 l 0.8,0.8 c 0.878,0.879 2.317,0.879 3.195,0 l 9.586,-9.587 c 0.472,-0.471 0.682,-1.103 0.647,-1.723 0.036,-0.619 -0.174,-1.251 -0.646,-1.723 z" /><rect
       inkscape:label="#rect4145"
       y="0"
       x="0"
       height="32"
       width="32"
       id="rect4145-0-5"
       style="fill:none;fill-opacity:0.562212;stroke:none;stroke-opacity:1" /></g><g
     id="arrow_left"
     inkscape:label="#g4749"
     transform="matrix(-1,0,0,-1,115.43172,33.090397)"
     inkscape:export-filename="/Users/chrismundy/Library/Application Support/Sublime Text 3/Packages/User/Mooseland/arrow_left.png"
     inkscape:export-xdpi="45"
     inkscape:export-ydpi="45"><path
       style="fill:#515151"
       inkscape:connector-curvature="0"
       id="path4137-4-60"
       d="M 24.291,14.276 14.705,4.69 c -0.878,-0.878 -2.317,-0.878 -3.195,0 l -0.8,0.8 c -0.878,0.877 -0.878,2.316 0,3.194 L 18.024,16 10.709,23.315 c -0.878,0.878 -0.878,2.317 0,3.194 l 0.8,0.8 c 0.878,0.879 2.317,0.879 3.195,0 l 9.586,-9.587 c 0.472,-0.471 0.682,-1.103 0.647,-1.723 0.036,-0.619 -0.174,-1.251 -0.646,-1.723 z" /><rect
       inkscape:label="#rect4145"
       y="0"
       x="0"
       height="32"
       width="32"
       id="rect4145-0-8"
       style="fill:none;fill-opacity:0.562212;stroke:none;stroke-opacity:1" /></g><g
     id="arrow_left@2x"
     inkscape:label="#g4749"
     transform="matrix(-1,0,0,-1,114.20126,69.749906)"
     inkscape:export-filename="/Users/chrismundy/Library/Application Support/Sublime Text 3/Packages/User/Mooseland/arrow_left@2x.png"
     inkscape:export-xdpi="90"
     inkscape:export-ydpi="90"><path
       style="fill:#515151"
       inkscape:connector-curvature="0"
       id="path4137-4-60-4"
       d="M 24.291,14.276 14.705,4.69 c -0.878,-0.878 -2.317,-0.878 -3.195,0 l -0.8,0.8 c -0.878,0.877 -0.878,2.316 0,3.194 L 18.024,16 10.709,23.315 c -0.878,0.878 -0.878,2.317 0,3.194 l 0.8,0.8 c 0.878,0.879 2.317,0.879 3.195,0 l 9.586,-9.587 c 0.472,-0.471 0.682,-1.103 0.647,-1.723 0.036,-0.619 -0.174,-1.251 -0.646,-1.723 z" /><rect
       inkscape:label="#rect4145"
       y="0"
       x="0"
       height="32"
       width="32"
       id="rect4145-0-8-0"
       style="fill:none;fill-opacity:0.562212;stroke:none;stroke-opacity:1" /></g></svg>